<?xml version="1.0" encoding="UTF-8" standalone="no"?>
<!-- Created with Inkscape (http://www.inkscape.org/) -->

<svg
   width="210mm"
   height="297mm"
   viewBox="0 0 210 297"
   version="1.1"
   id="svg1"
   xml:space="preserve"
   xmlns="http://www.w3.org/2000/svg"
   xmlns:svg="http://www.w3.org/2000/svg"><defs
     id="defs1" /><g
     id="layer1"><path
       style="fill:#fbcc3b;fill-opacity:1;stroke:none;stroke-width:0.600001"
       d="m 40.595487,86.990336 25.54185,-9.501071 -0.24679,-13.819743 -17.27467,6.292918 -8.02039,-10.858367 z"
       id="path4" /><path
       style="fill:#fac10e;fill-opacity:1;stroke:none;stroke-width:0.600001"
       d="M 40.595487,86.990336 14.991952,77.304178 15.11534,63.731217 32.6368,70.024136 40.595487,59.104073 Z"
       id="path5" /><path
       style="fill:#fcdc78;fill-opacity:1;stroke:none;stroke-width:0.600001"
       d="M 32.6368,70.024136 6.8761919,60.729213 15.208595,48.775922 40.595487,59.104073 Z"
       id="path6" /><path
       style="fill:#fcdc78;fill-opacity:1;stroke:none;stroke-width:0.600001"
       d="m 40.595487,59.104073 8.02039,10.858365 25.33398,-9.255038 -8.1361,-11.844227 z"
       id="path7" /><path
       style="fill:#bc8f04;fill-opacity:1;stroke:none;stroke-width:0.600001"
       d="M 65.813757,48.863171 40.595487,59.104073 15.208593,48.775922 40.225317,39.114802 Z"
       id="path8" /><path
       style="fill:#fcdc78;fill-opacity:1;stroke:none;stroke-width:0.600001"
       d="M 40.225317,39.114802 15.208593,48.775922 7.2800409,37.32564 32.760191,27.701178 Z"
       id="path9" /><path
       style="fill:#fcdc78;fill-opacity:1;stroke:none;stroke-width:0.600001"
       d="m 65.813757,48.863171 -25.58844,-9.748369 7.65851,-11.45345 25.65159,9.597533 z"
       id="path10" /><g
       id="g3"
       transform="matrix(-0.25717428,0,0,-0.25717428,181.06896,73.116655)"><g
         id="g10"
         transform="translate(182.10544,-24.105101)"><path
           d="m 322.48133,103.76293 c -10.34651,7.78457 -6.67763,33.6026 -6.67763,33.6026 h 45.65458 v 6.66264 h -65.52004 c 0,0 -28.60238,-1.43442 -28.60238,45.42617 0,46.86059 28.60238,45.42617 28.60238,45.42617 h 13.99295 c -0.51981,-37.21396 2.44813,-48.65117 25.12818,-49.14119 20.45289,-0.4419 59.30822,2.71772 66.06884,-7.31583 7.95388,-11.80451 9.52941,-59.20357 -0.4806,-72.09328 -8.54554,-11.00393 -61.11884,-15.39355 -78.16628,-2.56728 z m 12.90567,5.63221 c 4.67416,1.3e-4 8.46321,3.7894 8.46305,8.46357 -1.3e-4,4.67396 -3.78909,8.46292 -8.46305,8.46305 -4.67416,1.5e-4 -8.46344,-3.78889 -8.46357,-8.46305 -1.6e-4,-4.67437 3.7892,-8.46373 8.46357,-8.46357 z"
           style="fill:#3978ad;fill-opacity:1;stroke:none;stroke-width:0.600001"
           id="path3" /><path
           d="m 401.16033,274.12748 c 10.34651,-7.78458 6.67763,-33.60261 6.67763,-33.60261 h -45.65458 v -6.66263 h 65.52004 c 0,0 28.60239,1.43442 28.60239,-45.42617 0,-46.86059 -28.60239,-45.42617 -28.60239,-45.42617 h -13.99295 c 0.51981,37.21396 -2.44813,48.65117 -25.12819,49.14119 -20.45288,0.4419 -59.30817,-2.71772 -66.06879,7.31583 -7.95388,11.80451 -9.52941,59.20357 0.4806,72.09327 8.54554,11.00393 61.1188,15.39355 78.16624,2.56729 z m -12.90567,-5.63222 c -4.67417,-1.2e-4 -8.46321,-3.7894 -8.46305,-8.46356 1.2e-4,-4.67396 3.78909,-8.46293 8.46305,-8.46305 4.67416,-1.6e-4 8.46344,3.78888 8.46356,8.46305 1.6e-4,4.67436 -3.7892,8.46372 -8.46356,8.46356 z"
           style="fill:#f4cb3c;fill-opacity:1;stroke:none;stroke-width:0.600001"
           id="path3-3" /></g></g></g></svg>
